<svg xmlns="http://www.w3.org/2000/svg" width="100" height="21" viewBox="0 0 100 21" fill="none">
<path d="M0 5.91688H5.90531V0L0 5.91688Z" fill="#1DBC86"/>
<path d="M2.13538 11.7573H11.0038V2.875L2.13538 11.7573Z" fill="#1DBC86"/>
<path d="M4.23157 20.5938H19.04V5.77612L4.23157 20.5938Z" fill="#1DBC86"/>
<path d="M35.6413 15.6206C34.225 17.0127 32.3186 17.7927 30.3328 17.7927C28.3469 17.7927 26.4405 17.0127 25.0242 15.6206C24.3182 14.9291 23.7612 14.1004 23.3876 13.1854C23.0141 12.2704 22.8319 11.2886 22.8522 10.3005C22.8321 9.31248 23.0145 8.33078 23.388 7.41584C23.7615 6.5009 24.3184 5.67209 25.0242 4.98043C26.4405 3.58838 28.3469 2.80835 30.3328 2.80835C32.3186 2.80835 34.225 3.58838 35.6413 4.98043C36.3497 5.67064 36.9089 6.49897 37.2841 7.4141C37.6593 8.32923 37.8425 9.31167 37.8226 10.3005C37.8428 11.2894 37.6597 12.2719 37.2844 13.1871C36.9092 14.1023 36.3499 14.9306 35.6413 15.6206ZM27.0112 13.6846C27.9047 14.5368 29.0922 15.0123 30.327 15.0123C31.5618 15.0123 32.7492 14.5368 33.6428 13.6846C34.0863 13.2421 34.434 12.7132 34.6644 12.1306C34.8948 11.5481 35.003 10.9243 34.9821 10.2982C35.0026 9.67041 34.8944 9.04505 34.6641 8.46066C34.4337 7.87627 34.0862 7.34524 33.6428 6.90029C32.7528 6.04113 31.564 5.56097 30.327 5.56097C29.0899 5.56097 27.9012 6.04113 27.0112 6.90029C26.5682 7.34544 26.2211 7.87655 25.9912 8.46093C25.7612 9.04531 25.6534 9.67057 25.6742 10.2982C25.6529 10.9242 25.7606 11.5478 25.9906 12.1304C26.2206 12.713 26.568 13.242 27.0112 13.6846Z" fill="#1DBC86"/>
<path d="M46.594 7.20752H49.2494V17.5054H46.594V16.3488C45.9479 17.3095 44.9247 17.7899 43.5245 17.7899C43.0061 17.8053 42.4902 17.7122 42.0098 17.5166C41.5294 17.3211 41.0952 17.0273 40.7349 16.6542C39.9994 15.897 39.6324 14.853 39.6339 13.5222V7.20752H42.2893V13.2007C42.2893 13.8869 42.4744 14.412 42.8445 14.7759C43.0426 14.9614 43.2759 15.1052 43.5306 15.199C43.7852 15.2927 44.0561 15.3345 44.3272 15.3218C44.6313 15.3359 44.9351 15.2864 45.2191 15.1765C45.503 15.0665 45.761 14.8986 45.9764 14.6834C46.3881 14.2578 46.594 13.6194 46.594 12.7682V7.20752Z" fill="#1DBC86"/>
<path d="M54.3332 8.97972C54.552 8.35514 54.9868 7.82931 55.5591 7.49703C56.1378 7.16429 56.7953 6.99332 57.4628 7.00203V9.9674C56.7026 9.86086 55.9297 10.037 55.2908 10.4624C54.6524 10.888 54.3332 11.595 54.3332 12.5835V17.5058H51.6777V7.20789H54.3332V8.97972Z" fill="#1DBC86"/>
<path d="M64.514 3.09037C65.1606 3.07554 65.8034 3.1919 66.4037 3.43242C67.004 3.67294 67.5494 4.03264 68.0068 4.48979C68.4685 4.93385 68.8333 5.46871 69.0781 6.06068C69.3229 6.65264 69.4425 7.28889 69.4294 7.92935C69.4424 8.56979 69.3227 9.206 69.0779 9.79794C68.8331 10.3899 68.4684 10.9248 68.0068 11.3689C67.5491 11.8256 67.0037 12.185 66.4034 12.4255C65.8032 12.666 65.1605 12.7826 64.514 12.7683H61.9928V17.5055H59.1384V3.09037H64.514ZM64.514 10.1106C64.7947 10.1183 65.0738 10.0664 65.333 9.95833C65.5921 9.85028 65.8255 9.68853 66.0175 9.48374C66.2153 9.27708 66.3702 9.03336 66.4735 8.7666C66.5767 8.49983 66.6261 8.21529 66.619 7.92935C66.6287 7.64175 66.5809 7.35511 66.4784 7.08622C66.3759 6.81732 66.2208 6.57158 66.0222 6.36339C65.8286 6.16109 65.5948 6.00162 65.3359 5.89524C65.0769 5.78886 64.7985 5.73795 64.5187 5.74579H61.9928V10.1106H64.514Z" fill="#1DBC86"/>
<path d="M78.3089 7.20732H80.9574V17.5052H78.3089V16.2885C77.5101 17.2924 76.3913 17.7936 74.9526 17.792C74.2854 17.7974 73.6249 17.6596 73.0155 17.3878C72.4062 17.1161 71.8623 16.7168 71.4205 16.2168C70.4403 15.1741 69.9109 13.7869 69.9471 12.3563C69.9109 10.9256 70.4403 9.53843 71.4205 8.49571C71.8612 7.99694 72.4037 7.5983 73.0113 7.3266C73.619 7.0549 74.2777 6.91643 74.9433 6.9205C76.3836 6.9205 77.5024 7.4209 78.2996 8.42169L78.3089 7.20732ZM73.4074 14.445C73.6719 14.7152 73.9896 14.9277 74.3403 15.069C74.6911 15.2104 75.0673 15.2775 75.4453 15.2661C75.8237 15.2758 76.2001 15.2079 76.5514 15.0667C76.9026 14.9255 77.2213 14.7139 77.4877 14.445C77.7577 14.1715 77.9692 13.8458 78.1092 13.4879C78.2492 13.13 78.3147 12.7473 78.3019 12.3632C78.3142 11.9791 78.2484 11.5966 78.1084 11.2388C77.9684 10.8809 77.7573 10.5552 77.4877 10.2814C77.2197 10.0133 76.8995 9.80294 76.5471 9.6633C76.1946 9.52367 75.8173 9.45772 75.4383 9.46952C75.0611 9.45738 74.6854 9.52322 74.3347 9.66292C73.9841 9.80262 73.666 10.0132 73.4005 10.2814C73.1334 10.5565 72.9247 10.8827 72.7868 11.2404C72.6489 11.5981 72.5846 11.98 72.5978 12.3632C72.585 12.7469 72.6501 13.1292 72.7892 13.4871C72.9284 13.8449 73.1387 14.1708 73.4074 14.445Z" fill="#1DBC86"/>
<path d="M85.7386 10.1313C85.7386 10.4065 85.919 10.6309 86.2844 10.8021C86.7113 10.9983 87.1559 11.1532 87.6122 11.2647C88.1428 11.3972 88.665 11.5617 89.1758 11.7574C89.7034 11.9604 90.164 12.3064 90.5058 12.7566C90.8809 13.2616 91.0734 13.879 91.0517 14.5076C91.0743 14.981 90.9778 15.4525 90.7708 15.8789C90.5639 16.3052 90.2533 16.6728 89.8674 16.9479C88.9983 17.5404 87.9625 17.8395 86.9113 17.8015C84.7971 17.8015 83.3561 16.985 82.5881 15.3519L84.9012 14.0543C85.2019 14.9471 85.8743 15.3936 86.9182 15.3936C87.8666 15.3936 88.3385 15.0975 88.3385 14.5076C88.3385 14.2324 88.1581 14.0103 87.7926 13.8368C87.3646 13.6435 86.9203 13.4887 86.4649 13.3742C85.9281 13.2321 85.4006 13.0576 84.885 12.8515C84.3642 12.6465 83.9058 12.3092 83.555 11.873C83.1816 11.3948 82.9891 10.8001 83.0114 10.1937C82.9923 9.73324 83.0843 9.27491 83.2795 8.85743C83.4748 8.43995 83.7676 8.07557 84.1333 7.79506C84.9361 7.19382 85.9205 6.88529 86.9229 6.92071C87.7203 6.91052 88.5071 7.10483 89.2082 7.4851C89.8883 7.86338 90.4491 8.4242 90.8274 9.10427L88.586 10.3371C88.4532 10.0136 88.2238 9.73909 87.9289 9.55109C87.6341 9.36309 87.2883 9.27085 86.9391 9.287C86.6378 9.27708 86.3405 9.35765 86.0855 9.51831C85.9794 9.58148 85.8915 9.67124 85.8307 9.77874C85.7698 9.88624 85.7381 10.0078 85.7386 10.1313Z" fill="#1DBC86"/>
<path d="M94.6835 10.1317C94.6835 10.407 94.8662 10.6313 95.2294 10.8025C95.6572 10.9983 96.1025 11.1532 96.5594 11.2651C97.0901 11.3976 97.6123 11.5622 98.1231 11.7578C98.6503 11.9603 99.1102 12.3065 99.4508 12.7571C99.8276 13.2612 100.02 13.8792 99.9967 14.5081C100.02 14.9815 99.9233 15.4531 99.7164 15.8796C99.5094 16.306 99.1985 16.6735 98.8124 16.9484C97.9442 17.5411 96.9091 17.8403 95.8586 17.8019C93.7444 17.8019 92.3026 16.9854 91.5331 15.3523L93.8462 14.0547C94.1546 14.9476 94.8277 15.394 95.8655 15.394C96.8123 15.394 97.2857 15.0987 97.2857 14.5081C97.2857 14.2328 97.103 14.0108 96.7398 13.8373C96.3119 13.6439 95.8676 13.4891 95.4121 13.3747C94.8803 13.235 94.3574 13.0635 93.8462 12.8611C93.326 12.6561 92.8683 12.3188 92.5185 11.8827C92.1442 11.4048 91.9509 10.81 91.9726 10.2034C91.9538 9.74298 92.0459 9.28478 92.2412 8.86736C92.4364 8.44994 92.729 8.08551 93.0944 7.80474C93.8984 7.204 94.8833 6.89556 95.8863 6.93039C96.6838 6.9202 97.4706 7.11451 98.1716 7.49479C98.8521 7.87257 99.413 8.4335 99.7908 9.11395L97.5263 10.3491C97.3936 10.0256 97.1641 9.75108 96.8692 9.56308C96.5744 9.37509 96.2287 9.28284 95.8794 9.29899C95.5774 9.28904 95.2794 9.36959 95.0235 9.5303C94.9203 9.59331 94.835 9.68162 94.7754 9.78687C94.7159 9.89211 94.6843 10.0108 94.6835 10.1317Z" fill="#1DBC86"/>
</svg>